<?xml version="1.0" encoding="utf-8" ?>
<!-- Generator: Adobe Illustrator 16.0.0, SVG Export Plug-In . SVG Version: 6.00 Build 0)  -->
<!DOCTYPE svg PUBLIC "-//W3C//DTD SVG 1.1//EN" "http://www.w3.org/Graphics/SVG/1.1/DTD/svg11.dtd">
<svg version="1.1" id="old20" xmlns="http://www.w3.org/2000/svg" xmlns:xlink="http://www.w3.org/1999/xlink" viewBox="0 0 47 45" xml:space="preserve">
    <g>
        <path id="path3564" fill="#51eded" d="M44.858,4.406l-2.982-1.593c0,0-4.461-2.813-17.271-2.813h-1.97
		C12.533,0,5.758,2.813,5.758,2.813L2.479,4.491c-4.038,2.105-1.929,5.607-1.929,5.607s0.43,0.846,0.96,1.914
		c0.53,1.068,1.958,1.417,3.19,0.794l6.751-3.428c1.233-0.624,1.906-1.691,1.53-2.394c-0.376-0.703-0.776-1.46-0.812-1.704
		c-0.038-0.243,1.35-0.834,2.666-1.25c1.98-0.627,4.939-1.531,7.799-1.531H25c0,0,7.183,0.147,10.199,2.718
		c0.045,0.037,0.084,0.14,0.114,0.155c0.069,0.033,0.08,0.113,0.035,0.202c-0.022,0.044-0.048,0.117-0.075,0.187
		c-0.182,0.446-0.398,0.893-0.605,1.272c-0.369,0.679,0.272,1.726,1.494,2.37l6.361,3.354c1.221,0.644,2.671,0.301,3.238-0.768
		l1.025-1.936C46.788,10.055,48.896,6.512,44.858,4.406" />
        <path id="path3568" fill="black" d="M23.777,22.189c-2.937,0-5.323,2.39-5.323,5.323s2.387,5.32,5.323,5.32
		c2.936,0,5.32-2.387,5.32-5.32S26.711,22.189,23.777,22.189" />
        <path id="path3570" fill="#3a35a8" d="M15.736,26.774c0.116,0.031,0.236,0.048,0.354,0.048c0.619,0,1.162-0.417,1.321-1.015
		c0.195-0.73-0.24-1.481-0.967-1.678c-0.118-0.029-0.236-0.047-0.356-0.047c-0.616,0-1.157,0.418-1.319,1.016
		c-0.095,0.354-0.045,0.723,0.136,1.038C15.089,26.454,15.382,26.681,15.736,26.774" />
        <path id="path3572" fill="#040606" d="M17.273,30.256c0.183-0.315,0.232-0.684,0.138-1.036c-0.16-0.6-0.703-1.017-1.321-1.017
		c-0.119,0-0.238,0.015-0.354,0.047c-0.729,0.197-1.161,0.947-0.966,1.677c0.16,0.596,0.701,1.013,1.316,1.013
		c0.12,0,0.241-0.016,0.358-0.047C16.797,30.798,17.093,30.571,17.273,30.256" />
        <path id="path3574" fill="#040606" d="M22.069,33.877c-0.116-0.03-0.235-0.047-0.353-0.047c-0.618,0-1.161,0.419-1.321,1.015
		c-0.093,0.353-0.044,0.722,0.138,1.038c0.182,0.315,0.478,0.542,0.829,0.635c0.724,0.196,1.485-0.253,1.676-0.966
		c0.096-0.354,0.047-0.721-0.137-1.037C22.717,34.198,22.422,33.974,22.069,33.877" />
        <path id="path3576" fill="#040606" d="M18.151,31.771c-0.365,0-0.709,0.143-0.967,0.4c-0.533,0.533-0.533,1.4,0,1.936
		c0.516,0.515,1.417,0.515,1.934,0c0.533-0.535,0.533-1.402,0-1.936C18.859,31.914,18.516,31.771,18.151,31.771" />
        <path id="path3578" fill="#040606" d="M25.482,21.148c0.116,0.031,0.233,0.046,0.353,0.046c0.62,0,1.165-0.417,1.323-1.015
		c0.193-0.729-0.238-1.48-0.967-1.676c-0.117-0.03-0.236-0.046-0.354-0.046c-0.617,0-1.163,0.418-1.32,1.016
		C24.32,20.201,24.752,20.955,25.482,21.148" />
        <path id="path3580" fill="#040606" d="M30.277,24.769c-0.183,0.317-0.232,0.686-0.136,1.039c0.159,0.596,0.702,1.012,1.318,1.012
		c0.121,0,0.241-0.016,0.358-0.047c0.354-0.096,0.646-0.321,0.829-0.637c0.184-0.315,0.232-0.685,0.139-1.037
		c-0.161-0.598-0.705-1.016-1.322-1.016c-0.119,0-0.24,0.018-0.354,0.047C30.755,24.226,30.46,24.452,30.277,24.769" />
        <path id="path3582" fill="#040606" d="M21.716,21.194c0.119,0,0.237-0.015,0.353-0.046c0.354-0.094,0.648-0.322,0.832-0.637
		c0.184-0.316,0.232-0.687,0.137-1.039c-0.16-0.598-0.703-1.016-1.321-1.016c-0.12,0-0.239,0.017-0.355,0.046
		c-0.729,0.196-1.164,0.947-0.967,1.676C20.554,20.777,21.098,21.194,21.716,21.194" />
        <path id="path3584" fill="#040606" d="M19.117,22.854c0.258-0.262,0.401-0.604,0.4-0.971c0-0.364-0.142-0.708-0.401-0.967
		c-0.259-0.259-0.6-0.4-0.965-0.4c-0.365,0-0.708,0.141-0.967,0.4c-0.258,0.259-0.401,0.603-0.401,0.968
		c0,0.367,0.142,0.711,0.401,0.97C17.698,23.374,18.602,23.372,19.117,22.854" />
        <path id="path3586" fill="#040606" d="M31.818,28.252c-0.118-0.034-0.235-0.049-0.356-0.049c-0.618,0-1.161,0.417-1.32,1.017
		c-0.097,0.352-0.045,0.721,0.136,1.036c0.184,0.315,0.479,0.542,0.832,0.635c0.117,0.033,0.235,0.049,0.354,0.049
		c0.618,0,1.161-0.417,1.32-1.013C32.98,29.196,32.545,28.447,31.818,28.252" />
        <path id="path3588" fill="#040606" d="M30.772,21.885c0-0.364-0.142-0.707-0.402-0.967c-0.259-0.259-0.603-0.4-0.967-0.4
		c-0.367,0-0.711,0.141-0.969,0.4c-0.533,0.533-0.533,1.401,0,1.937c0.258,0.258,0.601,0.398,0.967,0.398s0.71-0.141,0.969-0.4
		C30.63,22.593,30.772,22.25,30.772,21.885" />
    </g>
    <path fill="#ddca37" d="M44.365,31.195L37.55,14.881c-0.257-0.657-1.047-1.316-1.754-1.316h-2.577V9.952
	c0-1.165-0.944-2.109-2.109-2.109h-0.675c-1.165,0-2.109,0.944-2.109,2.109v3.613h-8.854V9.952c0-1.165-0.944-2.109-2.109-2.109
	h-0.676c-1.165,0-2.109,0.944-2.109,2.109v3.613h-2.822c-0.707,0-1.496,0.66-1.753,1.316L3.08,31.178
	c-0.257,0.657-0.242,1.757,0.037,2.406l3.292,6.513c0.278,0.649,1.083,1.27,1.79,1.27h31.156c0.708,0,1.514-0.604,1.793-1.256
	l3.182-6.46C44.606,33.002,44.622,31.854,44.365,31.195z M23.777,38.193c-5.892,0-10.685-4.791-10.685-10.681
	c0-5.891,4.793-10.684,10.685-10.684c5.89,0,10.682,4.793,10.682,10.684C34.458,33.402,29.666,38.193,23.777,38.193z" />
</svg>
